<svg width="20" height="20" viewBox="0 0 20 20" fill="none" xmlns="http://www.w3.org/2000/svg">
<path d="M4.99992 18.3333C4.55789 18.3333 4.13397 18.1577 3.82141 17.8451C3.50885 17.5326 3.33325 17.1087 3.33325 16.6666V3.3333C3.33325 2.89127 3.50885 2.46734 3.82141 2.15478C4.13397 1.84222 4.55789 1.66663 4.99992 1.66663H11.6666C11.9304 1.6662 12.1917 1.71796 12.4354 1.81894C12.6791 1.91991 12.9004 2.06809 13.0866 2.25496L16.0766 5.24496C16.264 5.43122 16.4126 5.65275 16.5138 5.89676C16.6151 6.14078 16.667 6.40244 16.6666 6.66663V16.6666C16.6666 17.1087 16.491 17.5326 16.1784 17.8451C15.8659 18.1577 15.4419 18.3333 14.9999 18.3333H4.99992Z" stroke="#51A2FF" stroke-width="1.66667" stroke-linecap="round" stroke-linejoin="round"/>
<path d="M11.6667 1.66663V5.83329C11.6667 6.05431 11.7545 6.26627 11.9108 6.42255C12.0671 6.57883 12.2791 6.66663 12.5001 6.66663H16.6667" stroke="#51A2FF" stroke-width="1.66667" stroke-linecap="round" stroke-linejoin="round"/>
<path d="M8.33341 7.5H6.66675" stroke="#51A2FF" stroke-width="1.66667" stroke-linecap="round" stroke-linejoin="round"/>
<path d="M13.3334 10.8334H6.66675" stroke="#51A2FF" stroke-width="1.66667" stroke-linecap="round" stroke-linejoin="round"/>
<path d="M13.3334 14.1666H6.66675" stroke="#51A2FF" stroke-width="1.66667" stroke-linecap="round" stroke-linejoin="round"/>
</svg>
