<svg width="32" height="32" viewBox="0 0 32 32" fill="none" xmlns="http://www.w3.org/2000/svg">
<path fill-rule="evenodd" clip-rule="evenodd" d="M2.66406 9.14397C2.66406 7.42643 3.34635 5.77923 4.56084 4.56475C5.77532 3.35026 7.42252 2.66797 9.14006 2.66797H15.9974C16.351 2.66797 16.6902 2.80844 16.9402 3.05849C17.1903 3.30854 17.3307 3.64768 17.3307 4.0013C17.3307 4.35492 17.1903 4.69406 16.9402 4.94411C16.6902 5.19416 16.351 5.33464 15.9974 5.33464H9.14006C8.12976 5.33464 7.16085 5.73597 6.44646 6.45036C5.73207 7.16475 5.33073 8.13367 5.33073 9.14397V22.8586C5.33073 23.8689 5.73207 24.8379 6.44646 25.5522C7.16085 26.2666 8.12976 26.668 9.14006 26.668H22.8547C23.865 26.668 24.8339 26.2666 25.5483 25.5522C26.2627 24.8379 26.6641 23.8689 26.6641 22.8586V16.0013C26.6641 15.6477 26.8045 15.3085 27.0546 15.0585C27.3046 14.8084 27.6438 14.668 27.9974 14.668C28.351 14.668 28.6902 14.8084 28.9402 15.0585C29.1903 15.3085 29.3307 15.6477 29.3307 16.0013V22.8586C29.3307 24.5762 28.6484 26.2234 27.434 27.4379C26.2195 28.6523 24.5723 29.3346 22.8547 29.3346H9.14006C7.42252 29.3346 5.77532 28.6523 4.56084 27.4379C3.34635 26.2234 2.66406 24.5762 2.66406 22.8586V9.14397Z" fill="white"/>
<path fill-rule="evenodd" clip-rule="evenodd" d="M20.1802 17.6277L17.2402 19.4011L15.8628 17.1171L18.8028 15.3437L18.8068 15.3411C18.9195 15.2732 19.0234 15.1917 19.1162 15.0984L25.7962 8.38375C25.8631 8.31629 25.9276 8.24647 25.9895 8.17442C26.4308 7.65975 27.0842 6.64108 26.2935 5.84642C25.6255 5.17441 24.6682 5.80908 24.0482 6.35441C23.8819 6.50103 23.7217 6.6545 23.5682 6.81442L23.5228 6.85975L16.9362 13.4797C16.7798 13.6352 16.6572 13.8213 16.5762 14.0264L15.4775 16.7904C15.4567 16.8424 15.4527 16.8997 15.4663 16.954C15.4798 17.0084 15.5102 17.0571 15.553 17.0933C15.5958 17.1294 15.6489 17.1512 15.7047 17.1555C15.7606 17.1597 15.815 17.1463 15.8628 17.1171L17.2402 19.4011C14.8335 20.8517 11.9602 18.4144 13.0002 15.8037L14.1002 13.0411C14.3143 12.5012 14.6365 12.0108 15.0468 11.5997L21.6322 4.97842L21.6708 4.93975C21.8668 4.73975 22.5255 4.06508 23.3242 3.57975C23.7602 3.31708 24.4562 2.96908 25.3162 2.90241C26.3028 2.82375 27.3562 3.13441 28.1828 3.96508C28.8156 4.59013 29.2135 5.41421 29.3095 6.29842C29.3756 6.98761 29.2702 7.68244 29.0028 8.32108C28.6162 9.27708 27.9708 9.97975 27.6868 10.2637L21.0068 16.9784C20.7579 17.2282 20.4824 17.4446 20.1802 17.6277ZM26.1175 8.12642C26.1175 8.12642 26.1122 8.13041 26.1002 8.13442L26.1175 8.12642Z" fill="white"/>
</svg>
