<svg width="32" height="32" viewBox="0 0 32 32" fill="none" xmlns="http://www.w3.org/2000/svg">
<g clip-path="url(#clip0_1_4657)">
<path fill-rule="evenodd" clip-rule="evenodd" d="M6.44461 3.64858C10.6063 3.35606 14.7835 3.35606 18.9452 3.64858C19.6195 3.69658 20.2092 3.93201 20.6686 4.28172C20.9709 4.49992 21.3465 4.59131 21.7153 4.53636C22.084 4.48142 22.4167 4.2845 22.6422 3.98765C22.8678 3.6908 22.9683 3.31754 22.9224 2.94756C22.8765 2.57758 22.6878 2.24019 22.3966 2.00743C21.4915 1.32172 20.3715 0.887435 19.1486 0.798292C14.8523 0.494319 10.5398 0.494319 6.24347 0.798292C3.33604 1.00629 0.956609 3.20515 0.812609 6.06458C0.65002 9.37408 0.569234 12.6871 0.570323 16.0006C0.570323 19.4086 0.654895 22.7343 0.812609 25.9366C0.956609 28.796 3.33604 30.9949 6.24347 31.2029C10.5398 31.5068 14.8523 31.5068 19.1486 31.2029C20.3257 31.1235 21.4542 30.7033 22.3966 29.9937C22.5511 29.8822 22.6817 29.7409 22.7808 29.5781C22.8799 29.4153 22.9454 29.2344 22.9735 29.0459C23.0016 28.8575 22.9916 28.6653 22.9443 28.4807C22.897 28.2961 22.8133 28.1229 22.698 27.9711C22.5827 27.8194 22.4382 27.6923 22.2731 27.5972C22.1079 27.5022 21.9254 27.4411 21.7363 27.4177C21.5472 27.3942 21.3553 27.4088 21.172 27.4607C20.9886 27.5125 20.8175 27.6005 20.6686 27.7194C20.2092 28.0669 19.6172 28.3046 18.9452 28.3526C14.7842 28.645 10.6079 28.645 6.4469 28.3526C4.81718 28.2383 3.72918 27.0543 3.66747 25.7949C3.50611 22.5326 3.42608 19.2668 3.42747 16.0006C3.42747 12.6406 3.50975 9.36058 3.66747 6.20629C3.72918 4.94686 4.81718 3.76515 6.4469 3.64858M10.424 14.572H22.2915V9.63029C22.2918 9.38639 22.3545 9.14663 22.4737 8.93384C22.5929 8.72105 22.7646 8.54233 22.9725 8.41469C23.1803 8.28706 23.4173 8.21476 23.661 8.20469C23.9047 8.19461 24.1469 8.2471 24.3646 8.35715C27.1486 9.76744 29.8732 12.5286 31.2675 15.3423C31.3744 15.5457 31.4302 15.772 31.4302 16.0017C31.4302 16.2315 31.3744 16.4578 31.2675 16.6611C29.8732 19.4726 27.1463 22.2337 24.3646 23.644C24.1469 23.7541 23.9047 23.8065 23.661 23.7965C23.4173 23.7864 23.1803 23.7141 22.9725 23.5865C22.7646 23.4588 22.5929 23.2801 22.4737 23.0673C22.3545 22.8545 22.2918 22.6148 22.2915 22.3709V17.4291H10.4218C10.0429 17.4291 9.67951 17.2786 9.4116 17.0107C9.14369 16.7428 8.99318 16.3795 8.99318 16.0006C8.99318 15.6217 9.14369 15.2583 9.4116 14.9904C9.67951 14.7225 10.0452 14.572 10.424 14.572Z" fill="black"/>
</g>
<defs>
<clipPath id="clip0_1_4657">
<rect width="32" height="32" fill="white"/>
</clipPath>
</defs>
</svg>
