<svg width="32" height="32" viewBox="0 0 32 32" fill="none" xmlns="http://www.w3.org/2000/svg">
<path d="M5.33333 18.6667C5.08101 18.6675 4.83363 18.5968 4.61993 18.4626C4.40623 18.3285 4.23497 18.1365 4.12606 17.9089C4.01715 17.6813 3.97505 17.4274 4.00466 17.1769C4.03427 16.9263 4.13437 16.6893 4.29333 16.4933L17.4933 2.89332C17.5923 2.77903 17.7273 2.70179 17.876 2.67429C18.0247 2.6468 18.1783 2.67067 18.3116 2.74199C18.445 2.81331 18.5501 2.92785 18.6098 3.06679C18.6694 3.20574 18.6801 3.36085 18.64 3.50665L16.08 11.5333C16.0045 11.7353 15.9792 11.9527 16.0061 12.1667C16.0331 12.3806 16.1115 12.5849 16.2348 12.7619C16.358 12.9389 16.5224 13.0833 16.7137 13.1829C16.905 13.2824 17.1177 13.334 17.3333 13.3333H26.6667C26.919 13.3325 27.1664 13.4032 27.3801 13.5373C27.5938 13.6715 27.765 13.8635 27.8739 14.0911C27.9828 14.3187 28.0249 14.5725 27.9953 14.8231C27.9657 15.0737 27.8656 15.3107 27.7067 15.5067L14.5067 29.1066C14.4076 29.2209 14.2727 29.2982 14.124 29.3257C13.9753 29.3532 13.8217 29.3293 13.6884 29.258C13.555 29.1867 13.4499 29.0721 13.3902 28.9332C13.3305 28.7942 13.3199 28.6391 13.36 28.4933L15.92 20.4667C15.9955 20.2646 16.0208 20.0473 15.9939 19.8333C15.9669 19.6193 15.8884 19.4151 15.7652 19.2381C15.642 19.0611 15.4776 18.9166 15.2863 18.8171C15.095 18.7176 14.8823 18.6659 14.6667 18.6667H5.33333Z" stroke="#0A0A0F" stroke-width="2.66667" stroke-linecap="round" stroke-linejoin="round"/>
</svg>
