<svg width="32" height="32" viewBox="0 0 32 32" fill="none" xmlns="http://www.w3.org/2000/svg">
<g clip-path="url(#clip0_1_4667)">
<path d="M25.7199 23.0533L23.9999 21.3333V14.6667C23.9999 10.5733 21.8133 7.14668 17.9999 6.24001V5.33334C17.9999 4.22668 17.1066 3.33334 15.9999 3.33334C14.8933 3.33334 13.9999 4.22668 13.9999 5.33334V6.24001C10.1733 7.14668 7.99995 10.56 7.99995 14.6667V21.3333L6.27995 23.0533C5.43995 23.8933 6.02661 25.3333 7.21328 25.3333H24.7733C25.9733 25.3333 26.5599 23.8933 25.7199 23.0533ZM21.3333 22.6667H10.6666V14.6667C10.6666 11.36 12.6799 8.66668 15.9999 8.66668C19.3199 8.66668 21.3333 11.36 21.3333 14.6667V22.6667ZM15.9999 29.3333C17.4666 29.3333 18.6666 28.1333 18.6666 26.6667H13.3333C13.3333 28.1333 14.5199 29.3333 15.9999 29.3333Z" fill="white"/>
</g>
<defs>
<clipPath id="clip0_1_4667">
<rect width="32" height="32" fill="white"/>
</clipPath>
</defs>
</svg>
