<svg width="24" height="24" viewBox="0 0 24 24" fill="none" xmlns="http://www.w3.org/2000/svg">
<path d="M10.757 12.0001L15.707 16.9501C15.8026 17.0423 15.8787 17.1526 15.9311 17.2747C15.9836 17.3967 16.0111 17.5279 16.0123 17.6607C16.0135 17.7934 15.9882 17.9251 15.9379 18.048C15.8876 18.1709 15.8133 18.2826 15.7194 18.3765C15.6256 18.4703 15.5139 18.5446 15.391 18.5949C15.2681 18.6452 15.1364 18.6705 15.0036 18.6693C14.8709 18.6682 14.7396 18.6406 14.6176 18.5882C14.4956 18.5358 14.3853 18.4596 14.293 18.3641L8.63605 12.7071C8.44858 12.5195 8.34326 12.2652 8.34326 12.0001C8.34326 11.7349 8.44858 11.4806 8.63605 11.2931L14.293 5.63606C14.4817 5.4539 14.7343 5.35311 14.9964 5.35538C15.2586 5.35766 15.5095 5.46283 15.6949 5.64824C15.8803 5.83365 15.9854 6.08446 15.9877 6.34666C15.99 6.60885 15.8892 6.86146 15.707 7.05006L10.757 12.0001Z" fill="#697077"/>
</svg>
