<svg width="20" height="20" viewBox="0 0 20 20" fill="none" xmlns="http://www.w3.org/2000/svg">
<g clip-path="url(#clip0_1_5133)">
<path d="M7.50001 7.50254C7.49956 7.35465 7.53848 7.2093 7.61277 7.08143C7.68705 6.95355 7.79403 6.84774 7.92272 6.77487C8.05141 6.702 8.19718 6.66469 8.34505 6.66677C8.49293 6.66885 8.63758 6.71024 8.76417 6.7867L12.9283 9.2842C13.0523 9.35809 13.155 9.46291 13.2263 9.58839C13.2975 9.71387 13.335 9.85572 13.335 10C13.335 10.1444 13.2975 10.2862 13.2263 10.4117C13.155 10.5372 13.0523 10.642 12.9283 10.7159L8.76417 13.2134C8.63752 13.2899 8.49279 13.3313 8.34484 13.3333C8.1969 13.3353 8.05107 13.298 7.92236 13.225C7.79364 13.152 7.68667 13.0461 7.61245 12.9181C7.53822 12.7901 7.49941 12.6447 7.50001 12.4967V7.50254Z" stroke="#C27AFF" stroke-width="1.66667" stroke-linecap="round" stroke-linejoin="round"/>
<path d="M10.0001 18.3334C14.6025 18.3334 18.3334 14.6024 18.3334 10C18.3334 5.39765 14.6025 1.66669 10.0001 1.66669C5.39771 1.66669 1.66675 5.39765 1.66675 10C1.66675 14.6024 5.39771 18.3334 10.0001 18.3334Z" stroke="#C27AFF" stroke-width="1.66667" stroke-linecap="round" stroke-linejoin="round"/>
</g>
<defs>
<clipPath id="clip0_1_5133">
<rect width="20" height="20" fill="white"/>
</clipPath>
</defs>
</svg>
