<svg width="32" height="32" viewBox="0 0 32 32" fill="none" xmlns="http://www.w3.org/2000/svg">
<path d="M12.8951 5.51617C12.9685 4.74329 13.3275 4.02556 13.9019 3.50321C14.4762 2.98086 15.2247 2.69141 16.0011 2.69141C16.7774 2.69141 17.5259 2.98086 18.1003 3.50321C18.6746 4.02556 19.0336 4.74329 19.1071 5.51617C19.1512 6.01544 19.315 6.49673 19.5846 6.91929C19.8541 7.34185 20.2215 7.69325 20.6557 7.94374C21.0898 8.19423 21.5779 8.33644 22.0787 8.35833C22.5794 8.38022 23.0781 8.28115 23.5324 8.0695C24.2379 7.74921 25.0373 7.70286 25.7751 7.93948C26.5128 8.17611 27.1362 8.67877 27.5238 9.34964C27.9113 10.0205 28.0355 10.8116 27.8719 11.5689C27.7084 12.3263 27.2689 12.9957 26.6391 13.4468C26.2289 13.7346 25.8941 14.117 25.663 14.5615C25.4318 15.0061 25.3111 15.4998 25.3111 16.0008C25.3111 16.5019 25.4318 16.9956 25.663 17.4401C25.8941 17.8847 26.2289 18.267 26.6391 18.5548C27.2689 19.006 27.7084 19.6754 27.8719 20.4327C28.0355 21.1901 27.9113 21.9812 27.5238 22.652C27.1362 23.3229 26.5128 23.8256 25.7751 24.0622C25.0373 24.2988 24.2379 24.2525 23.5324 23.9322C23.0781 23.7205 22.5794 23.6214 22.0787 23.6433C21.5779 23.6652 21.0898 23.8074 20.6557 24.0579C20.2215 24.3084 19.8541 24.6598 19.5846 25.0824C19.315 25.5049 19.1512 25.9862 19.1071 26.4855C19.0336 27.2584 18.6746 27.9761 18.1003 28.4985C17.5259 29.0208 16.7774 29.3103 16.0011 29.3103C15.2247 29.3103 14.4762 29.0208 13.9019 28.4985C13.3275 27.9761 12.9685 27.2584 12.8951 26.4855C12.851 25.9861 12.6872 25.5046 12.4176 25.0819C12.1479 24.6592 11.7804 24.3077 11.346 24.0571C10.9117 23.8066 10.4234 23.6645 9.92251 23.6427C9.42159 23.621 8.92281 23.7202 8.46841 23.9322C7.76292 24.2525 6.96351 24.2988 6.22574 24.0622C5.48797 23.8256 4.86464 23.3229 4.47705 22.652C4.08946 21.9812 3.96536 21.1901 4.12889 20.4327C4.29241 19.6754 4.73187 19.006 5.36174 18.5548C5.7719 18.267 6.10671 17.8847 6.33786 17.4401C6.569 16.9956 6.68968 16.5019 6.68968 16.0008C6.68968 15.4998 6.569 15.0061 6.33786 14.5615C6.10671 14.117 5.7719 13.7346 5.36174 13.4468C4.73276 12.9954 4.29407 12.3263 4.13094 11.5695C3.96781 10.8127 4.09188 10.0222 4.47905 9.35179C4.86622 8.68135 5.48882 8.17881 6.22586 7.94182C6.9629 7.70484 7.76172 7.75035 8.46707 8.0695C8.92142 8.28115 9.42006 8.38022 9.92081 8.35833C10.4215 8.33644 10.9096 8.19423 11.3438 7.94374C11.7779 7.69325 12.1453 7.34185 12.4149 6.91929C12.6845 6.49673 12.8482 6.01544 12.8924 5.51617" stroke="white" stroke-width="1.66667" stroke-linecap="round" stroke-linejoin="round"/>
<path d="M16 20C18.2091 20 20 18.2091 20 16C20 13.7909 18.2091 12 16 12C13.7909 12 12 13.7909 12 16C12 18.2091 13.7909 20 16 20Z" stroke="white" stroke-width="1.66667" stroke-linecap="round" stroke-linejoin="round"/>
</svg>
